<?xml version="1.0" standalone="no"?>
<!DOCTYPE svg PUBLIC "-//W3C//DTD SVG 20010904//EN"
 "http://www.w3.org/TR/2001/REC-SVG-20010904/DTD/svg10.dtd">
<svg version="1.0" xmlns="http://www.w3.org/2000/svg"
 width="701.000000pt" height="622.000000pt" viewBox="0 0 701.000000 622.000000"
 preserveAspectRatio="xMidYMid meet">

<g transform="translate(0.000000,622.000000) scale(0.100000,-0.100000)"
fill="#5b8c1c" stroke="none">
<path d="M1983 6005 c371 -580 593 -1131 636 -1575 20 -205 21 -246 11 -370
-52 -640 -397 -1151 -1042 -1543 -123 -75 -496 -262 -505 -254 -3 3 39 38 94
78 428 317 765 686 969 1064 24 45 44 85 44 88 0 4 -250 7 -555 7 l-555 0 0
-525 0 -525 -520 0 -520 0 0 -710 0 -710 520 0 520 0 0 -485 0 -485 710 0 710
0 0 485 0 485 85 0 c79 0 86 2 95 22 5 13 34 88 66 168 169 432 379 767 833
1330 285 353 315 392 408 515 444 590 674 1173 758 1920 17 158 35 480 34 630
l0 100 -54 -185 c-401 -1386 -1074 -2447 -2035 -3212 -339 -269 -1165 -578
-1865 -697 -196 -33 -553 -81 -594 -80 -14 0 28 16 94 35 917 268 1551 563
2015 937 264 212 504 520 600 769 79 205 110 370 110 588 -1 345 -80 640 -279
1038 -118 236 -243 436 -425 677 -107 143 -305 388 -376 465 l-51 55 64 -100z"/>
<g fill="#646464" fill-rule="evenodd">
	<path d="M3465 5116 c-149 -47 -252 -157 -301 -321 -23 -77 -23 -218 -1 -302
	44 -167 156 -308 300 -378 67 -33 90 -39 161 -43 186 -10 326 77 411 253 78
	160 65 377 -31 541 -114 195 -358 308 -539 250z"/>

	<path d="M4905 3641 c-162 -27 -296 -125 -363 -268 -24 -52 -27 -69 -27 -164
	0 -101 1 -108 37 -180 64 -130 172 -228 309 -283 332 -130 689 53 707 363 13
	223 -150 436 -391 510 -78 24 -200 33 -272 22z"/>
</g>

<path d="M4665 2520 c-472 -43 -938 -282 -1349 -694 -197 -197 -335 -366 -520
-639 l-107 -157 430 0 431 0 0 278 1 277 79 68 c287 246 580 401 944 497 168
44 324 62 546 64 226 1 352 -12 579 -60 368 -79 666 -187 1059 -385 105 -53
192 -95 192 -94 0 1 -71 52 -157 113 -240 168 -426 278 -693 412 -504 253
-986 360 -1435 320z"/>
</g>
</svg>
