<svg id="svg" version="1.1" xmlns="http://www.w3.org/2000/svg" xmlns:xlink="http://www.w3.org/1999/xlink" width="400" height="354.9215406562054" viewBox="0, 0, 400,354.9215406562054"><g id="svgg"><path id="path0" d="M106.477 3.879 C 106.477 4.255,106.687 4.774,106.944 5.032 C 107.200 5.290,107.973 6.383,108.661 7.460 C 109.349 8.537,110.138 9.661,110.413 9.959 C 111.109 10.711,111.783 11.775,112.030 12.511 C 112.145 12.853,112.380 13.132,112.552 13.132 C 112.725 13.132,112.866 13.281,112.866 13.462 C 112.866 13.643,113.480 14.722,114.231 15.858 C 114.982 16.994,115.980 18.635,116.449 19.504 C 116.919 20.373,117.504 21.304,117.749 21.573 C 117.995 21.842,118.617 22.923,119.132 23.975 C 119.648 25.027,120.325 26.176,120.638 26.527 C 120.951 26.878,121.686 28.097,122.272 29.234 C 122.857 30.372,123.536 31.384,123.780 31.483 C 124.024 31.583,124.231 31.927,124.241 32.247 C 124.250 32.568,124.804 33.789,125.472 34.960 C 127.708 38.880,133.085 49.930,133.105 50.646 C 133.109 50.803,133.425 51.331,133.807 51.819 C 134.188 52.307,134.504 52.922,134.509 53.185 C 134.513 53.448,134.744 54.167,135.022 54.782 C 136.769 58.644,137.363 60.066,137.563 60.863 C 137.688 61.359,137.931 61.851,138.105 61.959 C 138.279 62.066,138.422 62.424,138.423 62.754 C 138.424 63.084,138.664 63.812,138.955 64.371 C 139.247 64.930,139.485 65.609,139.485 65.879 C 139.485 66.150,139.630 66.371,139.807 66.371 C 139.984 66.371,140.238 67.169,140.373 68.146 C 140.507 69.122,140.761 69.920,140.938 69.920 C 141.115 69.920,141.260 70.230,141.260 70.609 C 141.260 70.988,141.401 71.385,141.574 71.492 C 141.747 71.599,141.995 72.403,142.127 73.279 C 142.258 74.156,142.507 74.960,142.680 75.067 C 142.852 75.173,143.101 75.976,143.232 76.849 C 143.363 77.723,143.612 78.438,143.785 78.438 C 143.958 78.438,144.099 78.908,144.099 79.482 C 144.099 80.056,144.243 80.615,144.419 80.724 C 144.595 80.833,144.851 81.880,144.987 83.052 C 145.123 84.224,145.365 85.264,145.526 85.364 C 145.687 85.463,145.930 86.583,146.065 87.853 C 146.201 89.122,146.454 90.248,146.626 90.354 C 146.798 90.461,146.939 91.017,146.939 91.591 C 146.939 92.166,147.081 92.635,147.255 92.635 C 147.430 92.635,147.687 94.272,147.827 96.273 C 147.967 98.274,148.206 100.071,148.359 100.266 C 149.347 101.536,149.348 129.875,148.359 131.145 C 148.207 131.340,147.968 132.817,147.828 134.428 C 147.689 136.038,147.449 137.356,147.296 137.356 C 147.142 137.356,146.928 137.875,146.819 138.509 C 146.340 141.314,145.722 143.936,145.502 144.099 C 145.370 144.197,145.151 145.035,145.014 145.963 C 144.878 146.890,144.616 147.649,144.433 147.649 C 144.249 147.649,144.099 147.959,144.099 148.338 C 144.099 148.716,143.949 149.119,143.765 149.233 C 143.581 149.347,143.323 150.155,143.192 151.029 C 143.061 151.903,142.814 152.618,142.644 152.618 C 142.473 152.618,142.231 153.256,142.106 154.037 C 141.981 154.818,141.740 155.457,141.570 155.457 C 141.399 155.457,141.260 155.697,141.260 155.989 C 141.260 156.282,141.114 156.522,140.936 156.522 C 140.758 156.522,140.505 157.161,140.373 157.941 C 140.241 158.722,139.987 159.361,139.809 159.361 C 139.631 159.361,139.485 159.681,139.485 160.071 C 139.485 160.461,139.354 160.781,139.193 160.781 C 138.865 160.781,137.356 163.654,137.356 164.280 C 137.356 164.503,137.196 164.685,137.001 164.685 C 136.806 164.685,136.646 164.925,136.646 165.217 C 136.646 165.510,136.489 165.750,136.298 165.750 C 136.106 165.750,135.849 166.149,135.727 166.637 C 135.604 167.125,135.379 167.524,135.226 167.524 C 135.073 167.524,134.848 167.924,134.726 168.412 C 134.603 168.900,134.346 169.299,134.155 169.299 C 133.963 169.299,133.807 169.539,133.807 169.831 C 133.807 170.124,133.650 170.364,133.458 170.364 C 133.267 170.364,133.013 170.752,132.894 171.225 C 132.775 171.699,132.453 172.173,132.177 172.279 C 131.902 172.385,131.677 172.733,131.677 173.052 C 131.677 173.372,131.278 173.948,130.790 174.331 C 130.302 174.715,129.902 175.189,129.902 175.384 C 129.902 175.579,129.703 175.953,129.459 176.215 C 129.215 176.477,128.616 177.212,128.128 177.849 C 127.640 178.486,127.041 179.207,126.797 179.451 C 126.553 179.696,126.353 180.012,126.353 180.154 C 126.353 180.296,125.714 181.019,124.933 181.762 C 124.153 182.505,123.514 183.257,123.514 183.433 C 123.514 183.830,114.748 192.724,114.356 192.724 C 114.200 192.724,113.166 193.602,112.057 194.676 C 110.949 195.750,109.890 196.628,109.705 196.628 C 109.520 196.628,109.054 197.028,108.670 197.516 C 108.286 198.004,107.797 198.403,107.583 198.403 C 107.369 198.403,106.735 198.882,106.176 199.468 C 105.616 200.053,105.014 200.532,104.838 200.532 C 104.662 200.532,104.087 200.932,103.561 201.420 C 103.035 201.908,102.437 202.307,102.234 202.307 C 102.030 202.307,101.859 202.427,101.854 202.573 C 101.849 202.720,101.210 203.231,100.434 203.709 C 99.659 204.188,99.024 204.707,99.024 204.863 C 99.024 205.019,98.784 205.146,98.492 205.146 C 98.199 205.146,97.959 205.270,97.959 205.420 C 97.959 205.570,97.201 206.090,96.273 206.574 C 95.346 207.057,94.348 207.693,94.055 207.986 C 93.762 208.279,92.745 208.917,91.794 209.406 C 90.843 209.894,89.886 210.572,89.668 210.914 C 89.449 211.256,89.029 211.542,88.734 211.550 C 88.440 211.559,87.560 211.961,86.779 212.443 C 85.998 212.926,85.080 213.417,84.738 213.534 C 84.397 213.651,84.117 213.871,84.117 214.022 C 84.117 214.174,83.755 214.388,83.311 214.500 C 82.868 214.611,82.163 215.021,81.745 215.411 C 81.326 215.801,80.570 216.224,80.066 216.351 C 79.561 216.477,79.148 216.706,79.148 216.858 C 79.148 217.010,78.589 217.240,77.906 217.368 C 77.223 217.496,76.664 217.753,76.664 217.940 C 76.664 218.126,76.424 218.279,76.131 218.279 C 75.839 218.279,75.599 218.426,75.599 218.605 C 75.599 218.785,75.120 219.037,74.534 219.166 C 73.949 219.295,73.469 219.547,73.469 219.727 C 73.469 219.906,73.215 220.053,72.903 220.053 C 72.356 220.053,70.282 221.069,69.920 221.514 C 69.823 221.634,69.383 221.844,68.944 221.981 C 67.714 222.365,67.984 221.584,69.299 220.952 C 69.933 220.647,70.993 219.921,71.654 219.338 C 72.315 218.755,73.015 218.279,73.211 218.279 C 73.406 218.279,73.903 217.915,74.316 217.472 C 74.729 217.028,75.403 216.429,75.815 216.141 C 76.227 215.852,77.292 214.978,78.183 214.197 C 79.073 213.416,80.254 212.425,80.806 211.994 C 83.023 210.266,90.320 203.510,93.304 200.423 C 94.400 199.289,97.014 196.590,99.113 194.425 C 101.211 192.260,102.928 190.351,102.928 190.182 C 102.928 190.013,103.636 189.118,104.501 188.194 C 107.868 184.595,109.672 182.529,109.672 182.271 C 109.672 182.018,110.474 180.952,112.213 178.892 C 112.620 178.409,113.119 177.650,113.322 177.206 C 113.524 176.761,113.824 176.398,113.988 176.398 C 114.152 176.398,114.286 176.158,114.286 175.865 C 114.286 175.572,114.434 175.333,114.615 175.333 C 114.797 175.333,115.709 174.095,116.643 172.582 C 117.577 171.069,118.427 169.752,118.532 169.654 C 118.795 169.408,119.565 168.167,119.852 167.524 C 119.983 167.232,120.182 166.912,120.294 166.815 C 120.611 166.538,121.220 165.463,122.912 162.201 C 125.155 157.872,125.791 156.723,126.050 156.522 C 126.177 156.424,126.336 155.945,126.405 155.457 L 126.531 154.570 93.611 154.479 L 60.692 154.389 60.692 184.381 L 60.692 214.374 31.054 214.374 L 1.417 214.374 1.507 255.634 L 1.597 296.894 31.145 296.985 L 60.692 297.076 60.692 324.403 L 60.692 351.730 102.396 351.730 L 144.099 351.730 144.099 324.401 L 144.099 297.072 148.625 297.067 C 151.114 297.065,164.257 297.067,177.832 297.072 C 197.169 297.079,202.644 296.984,203.117 296.633 C 203.668 296.223,203.721 294.834,203.737 280.504 C 203.747 271.634,203.893 264.774,204.072 264.710 C 204.390 264.596,206.916 262.444,210.269 259.430 C 211.258 258.541,213.265 256.948,214.729 255.891 C 216.193 254.833,217.519 253.763,217.675 253.514 C 217.831 253.265,218.119 253.061,218.314 253.061 C 218.612 253.061,222.699 250.415,223.248 249.867 C 223.504 249.610,224.756 248.838,225.377 248.554 C 225.670 248.419,226.121 248.101,226.379 247.846 C 226.636 247.591,227.076 247.382,227.355 247.382 C 227.633 247.382,227.862 247.258,227.862 247.105 C 227.862 246.953,228.301 246.634,228.838 246.396 C 229.939 245.908,232.560 244.458,232.831 244.188 C 233.108 243.910,240.515 240.284,240.805 240.284 C 240.948 240.284,241.567 240.052,242.182 239.768 C 242.798 239.484,244.179 238.908,245.253 238.489 C 246.327 238.070,247.604 237.559,248.092 237.353 C 248.580 237.147,249.139 236.955,249.335 236.925 C 249.530 236.896,249.929 236.774,250.222 236.655 C 250.515 236.536,251.553 236.169,252.529 235.840 C 253.505 235.510,254.632 235.086,255.035 234.899 C 255.437 234.711,256.155 234.501,256.632 234.432 C 257.108 234.363,257.817 234.221,258.208 234.116 C 258.598 234.012,260.355 233.579,262.112 233.154 C 263.869 232.729,265.546 232.294,265.839 232.188 C 267.416 231.612,274.094 230.665,281.278 229.998 C 284.614 229.689,298.909 229.577,303.026 229.828 C 305.485 229.978,313.904 230.930,315.350 231.221 C 315.741 231.300,316.859 231.467,317.835 231.593 C 318.811 231.719,319.929 231.953,320.319 232.112 C 320.710 232.272,322.706 232.676,324.756 233.010 C 326.806 233.343,328.722 233.705,329.015 233.814 C 329.691 234.065,329.647 234.054,331.277 234.379 C 332.033 234.530,332.912 234.784,333.229 234.942 C 333.976 235.316,337.006 236.082,338.598 236.301 C 339.281 236.395,339.920 236.571,340.018 236.692 C 340.115 236.813,341.553 237.281,343.212 237.732 C 348.642 239.206,349.066 239.334,349.246 239.544 C 349.455 239.789,353.429 241.222,355.457 241.783 C 356.238 241.999,356.957 242.269,357.054 242.383 C 357.152 242.498,358.589 243.123,360.248 243.772 C 361.908 244.421,363.585 245.095,363.975 245.269 C 364.366 245.444,365.921 246.068,367.433 246.657 C 368.944 247.246,370.461 247.868,370.805 248.038 C 371.148 248.209,372.307 248.755,373.381 249.250 C 376.916 250.882,385.240 254.881,386.868 255.730 C 387.746 256.188,389.184 256.933,390.062 257.385 C 390.941 257.837,391.739 258.294,391.837 258.401 C 392.007 258.587,394.878 260.101,398.225 261.771 L 399.823 262.568 399.943 261.639 C 400.030 260.963,399.787 260.479,399.055 259.866 C 398.501 259.402,397.687 258.719,397.247 258.349 C 396.806 257.978,396.325 257.675,396.178 257.675 C 396.031 257.675,395.480 257.276,394.954 256.788 C 394.428 256.300,393.869 255.901,393.712 255.901 C 393.555 255.901,392.996 255.501,392.470 255.013 C 391.943 254.525,391.431 254.126,391.330 254.126 C 391.133 254.126,388.035 252.047,387.364 251.464 C 386.862 251.028,386.130 250.521,383.598 248.854 C 377.841 245.064,373.872 242.426,373.540 242.170 C 373.335 242.011,372.856 241.707,372.475 241.494 C 372.095 241.281,371.016 240.681,370.078 240.159 C 369.140 239.638,367.942 238.927,367.416 238.580 C 365.910 237.585,365.132 237.131,363.798 236.466 C 363.114 236.126,362.474 235.740,362.374 235.609 C 362.275 235.478,361.756 235.261,361.221 235.127 C 360.686 234.993,360.248 234.741,360.248 234.567 C 360.248 234.393,360.022 234.250,359.746 234.250 C 359.469 234.250,359.190 234.121,359.125 233.963 C 359.059 233.806,356.930 232.649,354.392 231.392 C 351.854 230.136,349.698 229.022,349.601 228.917 C 349.407 228.709,345.978 227.030,342.791 225.583 C 341.681 225.079,340.523 224.667,340.218 224.667 C 339.913 224.667,339.663 224.521,339.663 224.342 C 339.663 224.163,338.904 223.730,337.977 223.379 C 337.050 223.029,335.892 222.538,335.404 222.287 C 334.916 222.037,334.269 221.831,333.966 221.830 C 333.664 221.829,333.264 221.689,333.079 221.520 C 332.894 221.350,331.943 220.923,330.967 220.571 C 329.991 220.219,329.025 219.806,328.820 219.653 C 328.615 219.500,327.777 219.267,326.957 219.136 C 326.137 219.005,325.466 218.758,325.466 218.588 C 325.466 218.418,325.076 218.279,324.599 218.279 C 324.123 218.279,323.640 218.128,323.526 217.944 C 323.413 217.760,322.603 217.502,321.726 217.371 C 320.850 217.239,320.049 216.995,319.946 216.828 C 319.842 216.661,318.966 216.420,317.998 216.291 C 317.030 216.163,316.238 215.918,316.238 215.748 C 316.238 215.578,315.839 215.439,315.350 215.439 C 314.862 215.439,314.463 215.294,314.463 215.118 C 314.463 214.941,313.625 214.683,312.600 214.545 C 311.575 214.408,310.577 214.175,310.382 214.028 C 310.000 213.740,307.447 213.263,305.856 213.182 C 305.319 213.155,304.880 213.012,304.880 212.866 C 304.880 212.720,304.331 212.600,303.659 212.600 C 302.987 212.600,302.349 212.457,302.242 212.283 C 302.134 212.108,300.606 211.852,298.846 211.713 C 297.087 211.573,295.559 211.317,295.451 211.142 C 295.344 210.968,294.259 210.825,293.040 210.825 C 291.822 210.825,290.673 210.676,290.488 210.495 C 289.344 209.373,259.805 210.024,259.805 211.171 C 259.805 211.325,258.447 211.564,256.788 211.702 C 255.129 211.841,253.771 212.099,253.771 212.277 C 253.771 212.454,253.212 212.600,252.529 212.600 C 251.846 212.600,251.287 212.777,251.287 212.993 C 251.287 213.209,251.030 213.287,250.717 213.167 C 250.159 212.953,247.550 213.543,246.850 214.042 C 246.655 214.181,245.657 214.408,244.632 214.545 C 243.607 214.683,242.768 214.941,242.768 215.118 C 242.768 215.294,242.369 215.439,241.881 215.439 C 241.393 215.439,240.994 215.599,240.994 215.794 C 240.994 215.989,240.634 216.150,240.195 216.151 C 239.756 216.152,238.968 216.377,238.444 216.650 C 237.921 216.923,237.004 217.254,236.408 217.385 C 235.811 217.516,235.232 217.771,235.121 217.951 C 235.009 218.131,234.608 218.279,234.229 218.279 C 233.850 218.279,233.540 218.424,233.540 218.602 C 233.540 218.780,232.902 219.034,232.121 219.166 C 231.340 219.298,230.701 219.539,230.701 219.701 C 230.701 219.864,230.222 220.102,229.636 220.231 C 229.051 220.359,228.571 220.612,228.571 220.791 C 228.571 220.971,228.332 221.118,228.039 221.118 C 227.746 221.118,227.507 221.260,227.507 221.433 C 227.507 221.607,226.948 221.854,226.264 221.982 C 225.581 222.110,225.022 222.355,225.022 222.526 C 225.022 222.696,224.543 222.941,223.957 223.070 C 223.372 223.199,222.893 223.451,222.893 223.631 C 222.893 223.810,222.653 223.957,222.360 223.957 C 222.067 223.957,221.828 224.114,221.828 224.306 C 221.828 224.497,221.429 224.754,220.941 224.876 C 220.453 224.999,220.053 225.224,220.053 225.377 C 220.053 225.530,219.650 225.756,219.157 225.880 C 218.664 226.004,217.961 226.405,217.595 226.771 C 217.229 227.137,216.594 227.543,216.184 227.673 C 215.774 227.803,215.439 228.058,215.439 228.240 C 215.439 228.422,215.200 228.571,214.907 228.571 C 214.614 228.571,214.374 228.731,214.374 228.926 C 214.374 229.122,214.146 229.281,213.867 229.281 C 213.589 229.281,213.142 229.500,212.875 229.767 C 212.608 230.034,212.037 230.364,211.607 230.501 C 211.177 230.637,210.825 230.898,210.825 231.080 C 210.825 231.262,210.644 231.411,210.422 231.411 C 210.201 231.411,209.649 231.810,209.197 232.298 C 208.745 232.786,208.150 233.185,207.875 233.185 C 207.600 233.185,207.076 233.585,206.709 234.073 C 206.343 234.561,205.912 234.960,205.751 234.960 C 205.398 234.960,202.883 236.898,201.489 238.243 C 200.933 238.780,200.359 239.219,200.214 239.219 C 200.069 239.219,199.003 240.089,197.846 241.152 C 196.688 242.216,194.891 243.853,193.853 244.790 C 192.814 245.728,191.776 246.700,191.546 246.950 C 191.315 247.200,190.669 247.860,190.109 248.416 C 188.844 249.672,188.625 249.891,187.369 251.156 C 186.813 251.716,186.153 252.366,185.903 252.601 C 185.653 252.836,184.490 254.071,183.319 255.345 C 182.147 256.620,180.191 258.717,178.971 260.007 C 177.751 261.297,176.752 262.497,176.752 262.675 C 176.752 262.853,176.114 263.638,175.333 264.419 C 174.552 265.200,173.913 266.078,173.913 266.371 C 173.913 266.664,173.761 266.903,173.576 266.903 C 173.180 266.903,171.078 269.080,171.075 269.493 C 171.074 269.648,170.674 270.174,170.186 270.662 C 169.698 271.150,169.299 271.719,169.299 271.926 C 169.299 272.133,168.900 272.617,168.412 273.000 C 167.924 273.384,167.524 273.853,167.524 274.043 C 167.524 274.233,167.125 274.818,166.637 275.345 C 166.149 275.871,165.750 276.431,165.750 276.588 C 165.750 276.746,165.373 277.227,164.912 277.657 C 164.451 278.087,163.961 278.798,163.823 279.237 C 163.685 279.676,163.423 280.035,163.241 280.035 C 163.059 280.035,162.910 280.275,162.910 280.568 C 162.910 280.861,162.783 281.100,162.627 281.100 C 162.471 281.100,161.952 281.735,161.473 282.510 C 160.995 283.286,160.484 283.925,160.337 283.930 C 160.191 283.935,160.071 284.179,160.071 284.472 C 160.071 284.765,159.914 285.004,159.723 285.004 C 159.531 285.004,159.274 285.404,159.152 285.892 C 159.029 286.380,158.798 286.779,158.637 286.779 C 158.476 286.779,158.231 287.138,158.092 287.578 C 157.953 288.017,157.543 288.585,157.181 288.840 C 156.818 289.095,156.522 289.525,156.522 289.795 C 156.522 290.065,156.368 290.381,156.181 290.497 C 155.811 290.725,156.262 289.118,157.089 287.258 C 157.363 286.643,157.587 285.884,157.587 285.572 C 157.587 285.260,157.746 285.004,157.941 285.004 C 158.137 285.004,158.296 284.778,158.296 284.501 C 158.296 284.224,158.526 283.545,158.807 282.992 C 159.088 282.440,159.578 281.349,159.896 280.568 C 160.787 278.380,160.988 277.924,162.341 275.023 C 163.579 272.371,164.198 270.892,164.292 270.366 C 164.318 270.221,164.631 269.583,164.987 268.947 C 167.131 265.117,168.103 263.334,168.908 261.757 C 169.407 260.781,169.898 259.902,170.000 259.805 C 170.103 259.707,170.466 259.108,170.807 258.474 C 172.366 255.579,172.699 255.015,173.114 254.560 C 173.358 254.294,173.558 253.847,173.558 253.568 C 173.558 253.289,173.699 253.061,173.872 253.061 C 174.044 253.061,174.279 252.782,174.394 252.440 C 174.632 251.729,175.306 250.652,175.954 249.945 C 176.198 249.679,176.398 249.233,176.398 248.954 C 176.398 248.675,176.539 248.447,176.711 248.447 C 176.883 248.447,177.118 248.168,177.233 247.826 C 177.422 247.264,177.877 246.483,178.618 245.450 C 178.766 245.244,179.998 243.478,181.357 241.526 C 182.715 239.574,183.992 237.784,184.194 237.548 C 184.396 237.312,184.561 236.953,184.561 236.750 C 184.561 236.546,184.681 236.375,184.827 236.370 C 184.973 236.365,185.485 235.726,185.963 234.951 C 186.442 234.175,186.961 233.540,187.117 233.540 C 187.273 233.540,187.400 233.364,187.400 233.148 C 187.400 232.804,188.570 231.169,190.240 229.182 C 190.532 228.834,190.772 228.441,190.772 228.310 C 190.772 228.179,191.091 227.720,191.482 227.290 C 193.213 225.385,194.144 224.199,194.144 223.896 C 194.144 223.716,194.506 223.217,194.949 222.787 C 195.392 222.357,196.463 221.047,197.330 219.876 C 198.197 218.705,199.031 217.587,199.184 217.391 C 200.610 215.573,202.258 213.548,203.489 212.104 C 204.303 211.149,205.116 210.111,205.296 209.797 C 205.475 209.484,205.994 208.904,206.449 208.507 C 206.904 208.110,207.276 207.660,207.276 207.507 C 207.276 207.354,207.834 206.640,208.515 205.921 C 209.197 205.202,209.756 204.475,209.757 204.306 C 209.759 204.137,210.392 203.366,211.165 202.594 C 211.937 201.822,212.666 200.882,212.786 200.506 C 212.905 200.130,213.146 199.823,213.322 199.823 C 213.498 199.823,214.314 198.904,215.136 197.782 C 215.958 196.659,216.841 195.613,217.099 195.457 C 217.357 195.301,217.569 194.987,217.569 194.759 C 217.569 194.530,217.928 194.019,218.367 193.622 C 219.319 192.762,221.473 190.029,221.473 189.681 C 221.473 189.546,221.757 189.177,222.103 188.862 C 222.450 188.546,222.989 187.884,223.302 187.391 C 223.614 186.898,224.205 186.099,224.614 185.616 C 225.897 184.101,227.663 181.846,228.217 181.014 C 228.509 180.574,228.918 180.035,229.125 179.815 C 230.012 178.871,235.315 171.415,235.315 171.111 C 235.315 170.928,235.435 170.725,235.581 170.660 C 235.985 170.480,237.445 168.314,237.445 167.894 C 237.445 167.691,237.604 167.524,237.799 167.524 C 237.995 167.524,238.154 167.285,238.154 166.992 C 238.154 166.699,238.324 166.460,238.530 166.460 C 238.737 166.460,238.816 166.314,238.706 166.135 C 238.595 165.956,238.626 165.757,238.773 165.691 C 239.206 165.500,240.994 162.993,240.994 162.579 C 240.994 162.371,241.136 162.201,241.310 162.201 C 241.484 162.201,241.727 161.801,241.849 161.313 C 241.972 160.825,242.229 160.426,242.420 160.426 C 242.612 160.426,242.768 160.269,242.768 160.077 C 242.768 159.885,243.433 158.648,244.245 157.327 C 245.737 154.898,248.688 149.394,250.765 145.164 C 253.103 140.404,254.628 137.171,254.643 136.942 C 254.651 136.812,254.778 136.585,254.925 136.439 C 255.071 136.293,255.191 135.880,255.191 135.522 C 255.191 135.164,255.311 134.871,255.457 134.870 C 255.603 134.869,256.016 134.111,256.374 133.184 C 256.732 132.258,257.270 130.861,257.570 130.080 C 258.531 127.577,258.657 127.264,259.236 125.945 C 259.549 125.232,259.805 124.420,259.805 124.140 C 259.805 123.861,259.925 123.512,260.071 123.366 C 260.217 123.219,260.351 122.993,260.368 122.863 C 260.399 122.626,260.685 121.828,261.218 120.497 C 261.782 119.087,262.644 115.965,262.644 115.331 C 262.644 114.974,262.786 114.595,262.959 114.488 C 263.132 114.381,263.384 113.693,263.518 112.959 C 263.653 112.224,264.150 110.462,264.623 109.043 C 265.096 107.624,265.484 106.093,265.484 105.642 C 265.484 105.190,265.601 104.704,265.744 104.560 C 265.999 104.306,266.697 101.499,267.122 99.024 C 267.239 98.341,267.470 97.525,267.636 97.212 C 267.802 96.899,268.046 95.581,268.179 94.284 C 268.312 92.987,268.538 91.925,268.682 91.925 C 268.825 91.925,269.026 91.167,269.128 90.240 C 269.402 87.739,270.116 83.403,270.487 81.988 C 270.666 81.304,270.975 79.148,271.174 77.196 C 271.373 75.244,271.705 72.449,271.911 70.985 C 272.117 69.521,272.341 67.205,272.409 65.839 C 272.476 64.472,272.617 63.114,272.722 62.822 C 273.388 60.960,274.302 25.402,273.707 24.533 C 273.208 23.806,272.582 24.386,272.582 25.576 C 272.582 26.150,272.440 26.619,272.267 26.619 C 272.094 26.619,271.861 27.059,271.750 27.595 C 271.194 30.265,270.599 32.520,270.347 32.911 C 270.192 33.150,269.971 34.148,269.855 35.129 C 269.739 36.110,269.506 36.912,269.338 36.912 C 269.170 36.912,269.033 37.302,269.033 37.779 C 269.033 38.255,268.884 38.737,268.703 38.849 C 268.521 38.961,268.263 39.929,268.129 40.999 C 267.996 42.070,267.760 42.946,267.606 42.946 C 267.451 42.946,267.215 43.744,267.081 44.720 C 266.947 45.697,266.692 46.495,266.515 46.495 C 266.338 46.495,266.193 46.894,266.193 47.382 C 266.193 47.870,266.045 48.270,265.864 48.270 C 265.683 48.270,265.425 49.148,265.291 50.222 C 265.157 51.295,264.921 52.174,264.766 52.174 C 264.612 52.174,264.376 52.972,264.241 53.949 C 264.107 54.925,263.853 55.723,263.676 55.723 C 263.499 55.723,263.354 56.024,263.354 56.392 C 263.354 56.761,263.115 57.519,262.824 58.078 C 262.532 58.637,262.293 59.445,262.291 59.873 C 262.290 60.300,262.139 60.743,261.955 60.857 C 261.771 60.971,261.513 61.779,261.382 62.652 C 261.251 63.526,261.002 64.241,260.829 64.241 C 260.656 64.241,260.515 64.641,260.515 65.129 C 260.515 65.617,260.357 66.016,260.164 66.016 C 259.971 66.016,259.711 66.655,259.586 67.436 C 259.461 68.217,259.220 68.855,259.050 68.855 C 258.879 68.855,258.740 69.113,258.740 69.429 C 258.740 70.222,257.558 73.620,257.231 73.765 C 257.084 73.831,256.864 74.509,256.742 75.274 C 256.620 76.038,256.380 76.664,256.210 76.664 C 256.040 76.664,255.901 76.983,255.901 77.374 C 255.901 77.764,255.755 78.083,255.577 78.083 C 255.399 78.083,255.145 78.722,255.013 79.503 C 254.881 80.284,254.642 80.923,254.481 80.923 C 254.320 80.923,254.080 81.562,253.949 82.343 C 253.817 83.123,253.563 83.762,253.385 83.762 C 253.207 83.762,253.061 84.072,253.061 84.451 C 253.061 84.830,252.914 85.231,252.734 85.342 C 252.553 85.454,252.299 86.033,252.168 86.630 C 252.037 87.226,251.706 88.143,251.433 88.666 C 251.160 89.190,250.935 89.818,250.934 90.062 C 250.933 90.306,250.798 90.506,250.634 90.506 C 250.471 90.506,250.039 91.384,249.674 92.458 C 249.309 93.531,248.885 94.410,248.733 94.410 C 248.580 94.410,248.353 95.049,248.229 95.830 C 248.104 96.610,247.862 97.249,247.692 97.249 C 247.522 97.249,247.382 97.489,247.382 97.782 C 247.382 98.075,247.240 98.314,247.067 98.314 C 246.894 98.314,246.647 98.873,246.519 99.556 C 246.390 100.240,246.153 100.799,245.992 100.799 C 245.831 100.799,245.596 101.437,245.472 102.218 C 245.347 102.999,245.087 103.638,244.894 103.638 C 244.701 103.638,244.543 103.878,244.543 104.170 C 244.543 104.463,244.383 104.703,244.188 104.703 C 243.993 104.703,243.833 104.893,243.833 105.125 C 243.833 105.606,241.656 110.109,241.290 110.385 C 241.158 110.485,240.933 111.044,240.790 111.627 C 240.647 112.211,240.426 112.768,240.300 112.866 C 239.989 113.105,238.864 115.548,238.864 115.982 C 238.864 116.172,238.625 116.527,238.332 116.770 C 238.039 117.013,237.799 117.512,237.799 117.878 C 237.799 118.245,237.640 118.545,237.445 118.545 C 237.249 118.545,237.090 118.784,237.090 119.077 C 237.090 119.370,236.943 119.610,236.763 119.610 C 236.583 119.610,236.331 120.089,236.202 120.674 C 236.074 121.260,235.821 121.739,235.642 121.739 C 235.462 121.739,235.315 121.967,235.315 122.246 C 235.315 122.525,235.109 122.964,234.858 123.222 C 234.318 123.776,233.185 126.113,233.185 126.673 C 233.185 126.887,233.026 127.063,232.831 127.063 C 232.635 127.063,232.476 127.291,232.476 127.570 C 232.476 127.849,232.276 128.288,232.031 128.546 C 231.787 128.804,231.268 129.652,230.878 130.429 C 230.488 131.207,229.969 132.057,229.725 132.318 C 229.481 132.579,229.281 133.021,229.281 133.300 C 229.281 133.578,229.122 133.807,228.926 133.807 C 228.731 133.807,228.571 134.046,228.571 134.339 C 228.571 134.632,228.415 134.871,228.223 134.871 C 228.032 134.871,227.775 135.271,227.652 135.759 C 227.530 136.247,227.306 136.646,227.155 136.646 C 227.003 136.646,226.786 136.925,226.671 137.267 C 226.468 137.871,225.736 139.127,225.377 139.485 C 225.280 139.583,224.895 140.262,224.523 140.994 C 224.150 141.726,223.711 142.325,223.547 142.325 C 223.382 142.325,223.248 142.553,223.248 142.832 C 223.248 143.111,223.029 143.557,222.762 143.824 C 222.495 144.091,222.165 144.662,222.028 145.092 C 221.892 145.522,221.631 145.874,221.449 145.874 C 221.267 145.874,221.118 146.114,221.118 146.406 C 221.118 146.699,220.969 146.939,220.787 146.939 C 220.605 146.939,220.344 147.291,220.208 147.721 C 220.071 148.151,219.741 148.721,219.474 148.988 C 219.207 149.255,218.988 149.691,218.988 149.957 C 218.988 150.223,218.685 150.537,218.314 150.654 C 217.943 150.772,217.541 151.262,217.420 151.743 C 217.299 152.224,217.044 152.618,216.852 152.618 C 216.661 152.618,216.504 152.850,216.504 153.134 C 216.504 153.418,216.137 154.017,215.688 154.466 C 215.240 154.914,214.766 155.560,214.635 155.902 C 214.504 156.243,214.232 156.522,214.031 156.522 C 213.829 156.522,213.665 156.841,213.665 157.232 C 213.665 157.622,213.518 157.941,213.339 157.941 C 213.159 157.941,212.647 158.540,212.200 159.272 C 211.753 160.004,211.261 160.657,211.107 160.722 C 210.952 160.787,210.825 161.066,210.825 161.343 C 210.825 161.619,210.679 161.846,210.499 161.846 C 210.320 161.846,209.808 162.445,209.361 163.177 C 208.914 163.909,208.422 164.561,208.267 164.626 C 208.112 164.691,207.986 164.899,207.986 165.089 C 207.986 165.278,207.507 165.944,206.923 166.568 C 206.338 167.191,205.859 167.866,205.858 168.067 C 205.857 168.268,205.529 168.667,205.130 168.954 C 204.731 169.242,204.076 170.032,203.675 170.710 C 203.274 171.388,202.643 172.156,202.272 172.416 C 201.901 172.676,201.593 173.079,201.587 173.312 C 201.582 173.545,201.103 174.201,200.523 174.771 C 199.942 175.340,199.468 175.951,199.468 176.128 C 199.468 176.305,198.829 177.023,198.048 177.724 C 197.267 178.425,196.628 179.137,196.628 179.306 C 196.628 179.475,195.830 180.433,194.854 181.435 C 193.878 182.437,193.079 183.376,193.079 183.521 C 193.079 183.667,192.360 184.525,191.482 185.429 C 190.603 186.333,189.885 187.295,189.885 187.567 C 189.885 187.840,189.565 188.164,189.175 188.287 C 188.784 188.411,188.465 188.649,188.465 188.816 C 188.465 189.079,187.721 189.872,185.903 191.546 C 185.653 191.776,184.650 192.851,183.673 193.935 C 180.139 197.858,176.825 201.242,176.517 201.242 C 176.344 201.242,175.535 201.921,174.718 202.751 C 173.902 203.580,173.048 204.440,172.821 204.660 C 172.594 204.881,171.936 205.560,171.359 206.169 C 170.782 206.778,170.173 207.276,170.005 207.276 C 169.838 207.276,169.603 207.587,169.482 207.968 C 169.362 208.348,168.951 208.758,168.570 208.879 C 168.189 209.000,167.068 209.887,166.080 210.850 C 165.091 211.812,164.207 212.600,164.114 212.600 C 163.695 212.600,160.781 215.396,160.781 215.798 C 160.781 215.965,160.421 216.214,159.982 216.352 C 159.543 216.490,158.675 217.140,158.054 217.796 C 157.433 218.452,156.766 218.988,156.573 218.988 C 156.380 218.988,155.742 219.468,155.157 220.053 C 154.571 220.639,153.987 221.118,153.860 221.118 C 153.732 221.118,153.149 221.597,152.563 222.183 C 151.977 222.768,151.377 223.248,151.230 223.248 C 151.082 223.248,150.269 223.886,149.423 224.667 C 148.577 225.448,147.672 226.087,147.412 226.087 C 147.152 226.087,146.939 226.247,146.939 226.442 C 146.939 226.637,146.699 226.797,146.406 226.797 C 146.114 226.797,145.874 226.939,145.874 227.113 C 145.874 227.287,145.444 227.538,144.919 227.669 C 144.394 227.801,143.696 228.218,143.370 228.595 C 143.043 228.972,142.274 229.380,141.663 229.502 C 141.051 229.625,140.549 229.825,140.547 229.947 C 140.545 230.069,139.826 230.484,138.950 230.869 C 138.073 231.255,137.356 231.694,137.356 231.845 C 137.356 231.997,137.169 232.121,136.940 232.121 C 136.361 232.121,131.881 234.315,131.736 234.670 C 131.671 234.830,131.432 234.965,131.204 234.972 C 130.976 234.979,130.151 235.293,129.370 235.670 C 128.589 236.047,127.751 236.361,127.507 236.368 C 127.263 236.374,127.063 236.539,127.063 236.735 C 127.063 236.930,126.823 237.090,126.531 237.090 C 126.238 237.090,125.998 237.232,125.998 237.405 C 125.998 237.579,125.439 237.825,124.756 237.954 C 124.073 238.082,123.514 238.339,123.514 238.525 C 123.514 238.712,123.275 238.864,122.984 238.864 C 122.249 238.864,119.610 240.037,119.610 240.363 C 119.610 240.510,118.971 240.733,118.190 240.857 C 117.409 240.982,116.770 241.205,116.770 241.353 C 116.770 241.500,116.411 241.738,115.972 241.881 C 115.532 242.024,115.093 242.175,114.996 242.217 C 114.898 242.259,114.379 242.418,113.842 242.570 C 113.305 242.721,112.866 242.974,112.866 243.131 C 112.866 243.288,112.227 243.524,111.446 243.656 C 110.665 243.788,110.027 244.041,110.027 244.219 C 110.027 244.397,109.707 244.543,109.317 244.543 C 108.926 244.543,108.607 244.685,108.607 244.858 C 108.607 245.031,107.888 245.280,107.010 245.412 C 106.131 245.544,105.413 245.787,105.413 245.953 C 105.413 246.119,104.774 246.363,103.993 246.495 C 103.212 246.627,102.573 246.881,102.573 247.059 C 102.573 247.237,102.174 247.382,101.686 247.382 C 101.198 247.382,100.799 247.527,100.799 247.704 C 100.799 247.881,100.000 248.136,99.024 248.270 C 98.048 248.404,97.249 248.659,97.249 248.835 C 97.249 249.012,96.890 249.158,96.451 249.159 C 96.012 249.160,95.195 249.400,94.636 249.692 C 94.076 249.983,93.318 250.222,92.950 250.222 C 92.582 250.222,92.280 250.355,92.280 250.517 C 92.280 250.680,91.442 250.992,90.417 251.210 C 86.346 252.079,84.827 252.504,84.827 252.776 C 84.827 252.933,84.268 253.061,83.585 253.061 C 82.902 253.061,82.343 253.203,82.343 253.375 C 82.343 253.548,81.464 253.799,80.390 253.933 C 79.317 254.067,78.438 254.295,78.438 254.439 C 78.438 254.583,77.440 254.895,76.220 255.133 C 72.421 255.873,72.050 255.973,72.050 256.261 C 72.050 256.415,71.091 256.652,69.920 256.788 C 68.749 256.924,67.791 257.179,67.791 257.355 C 67.791 257.531,67.161 257.675,66.392 257.675 C 65.623 257.675,64.904 257.819,64.795 257.995 C 64.687 258.171,63.639 258.427,62.467 258.562 C 61.296 258.698,60.337 258.937,60.337 259.093 C 60.337 259.249,59.059 259.489,57.498 259.627 C 55.936 259.766,54.658 260.022,54.658 260.197 C 54.658 260.372,54.020 260.515,53.239 260.515 C 52.458 260.515,51.819 260.660,51.819 260.838 C 51.819 261.015,50.421 261.276,48.713 261.416 C 47.005 261.557,45.528 261.784,45.430 261.922 C 45.275 262.142,43.065 262.460,36.380 263.224 C 35.404 263.336,34.445 263.554,34.250 263.709 C 34.055 263.864,32.176 264.106,30.074 264.248 C 27.973 264.389,26.167 264.645,26.061 264.817 C 25.954 264.988,25.039 265.110,24.025 265.086 L 22.183 265.044 23.780 264.621 C 24.658 264.388,25.617 264.103,25.909 263.987 C 26.817 263.627,29.933 262.726,31.141 262.475 C 31.773 262.343,32.381 262.087,32.492 261.907 C 32.604 261.727,33.087 261.579,33.566 261.579 C 34.045 261.579,34.715 261.434,35.054 261.256 C 35.393 261.079,39.264 259.769,43.656 258.347 C 48.048 256.924,52.041 255.553,52.529 255.300 C 53.017 255.047,53.624 254.839,53.877 254.838 C 54.130 254.837,54.976 254.528,55.756 254.151 C 56.535 253.774,57.644 253.363,58.219 253.236 C 58.794 253.110,59.355 252.859,59.467 252.679 C 59.578 252.499,59.995 252.351,60.393 252.351 C 60.791 252.351,61.660 252.112,62.324 251.819 C 62.988 251.526,64.075 251.047,64.739 250.754 C 65.403 250.461,66.037 250.222,66.148 250.222 C 66.259 250.222,67.223 249.823,68.290 249.335 C 69.357 248.846,70.460 248.447,70.741 248.447 C 71.023 248.447,71.452 248.208,71.695 247.915 C 71.938 247.622,72.516 247.382,72.980 247.382 C 73.445 247.382,73.824 247.223,73.824 247.028 C 73.824 246.832,74.074 246.673,74.379 246.673 C 74.684 246.673,75.842 246.265,76.952 245.767 C 78.062 245.268,79.450 244.645,80.035 244.381 C 80.621 244.117,81.858 243.606,82.785 243.246 C 83.711 242.886,84.470 242.471,84.471 242.325 C 84.471 242.178,84.672 242.058,84.916 242.058 C 85.160 242.058,86.398 241.552,87.666 240.933 C 88.935 240.314,90.085 239.795,90.222 239.779 C 90.358 239.764,90.670 239.552,90.914 239.308 C 91.158 239.064,91.528 238.864,91.737 238.864 C 92.267 238.864,101.013 234.408,101.508 233.886 C 101.606 233.783,102.405 233.393,103.283 233.020 C 104.161 232.647,105.132 232.133,105.441 231.877 C 105.749 231.620,106.188 231.411,106.417 231.411 C 106.645 231.411,106.834 231.291,106.836 231.145 C 106.839 230.998,107.477 230.573,108.256 230.200 C 109.035 229.827,109.672 229.388,109.672 229.224 C 109.672 229.060,109.844 228.926,110.054 228.926 C 110.265 228.926,111.982 227.961,113.870 226.782 C 115.758 225.603,117.622 224.445,118.012 224.209 C 118.403 223.973,118.802 223.695,118.900 223.591 C 118.997 223.487,119.916 222.871,120.941 222.223 C 121.965 221.574,122.804 220.918,122.804 220.765 C 122.804 220.611,123.185 220.389,123.651 220.273 C 124.116 220.156,124.875 219.662,125.337 219.175 C 125.798 218.689,126.358 218.288,126.581 218.285 C 126.804 218.281,127.079 218.039,127.191 217.746 C 127.304 217.453,127.627 217.214,127.910 217.214 C 128.192 217.214,128.477 217.091,128.542 216.942 C 128.607 216.792,129.539 216.044,130.612 215.281 C 131.686 214.517,132.995 213.442,133.520 212.891 C 134.046 212.341,134.613 211.890,134.780 211.890 C 134.947 211.890,136.005 211.012,137.131 209.938 C 138.257 208.864,139.289 207.986,139.424 207.986 C 140.099 207.986,154.480 192.758,154.684 191.827 C 154.748 191.539,154.944 191.304,155.121 191.304 C 155.298 191.304,155.768 190.665,156.167 189.885 C 156.565 189.104,157.048 188.465,157.239 188.465 C 157.430 188.465,157.587 188.306,157.587 188.113 C 157.587 187.919,157.946 187.351,158.385 186.850 C 159.310 185.796,160.696 183.599,161.005 182.697 C 161.123 182.356,161.364 182.076,161.541 182.076 C 161.718 182.076,162.019 181.717,162.208 181.278 C 162.564 180.456,163.306 179.196,163.620 178.882 C 164.284 178.218,167.879 170.980,167.879 170.308 C 167.879 169.981,168.013 169.660,168.176 169.595 C 168.566 169.439,170.719 163.755,170.719 162.880 C 170.719 162.506,170.878 162.201,171.074 162.201 C 171.269 162.201,171.429 161.753,171.429 161.207 C 171.429 160.660,171.593 160.049,171.793 159.849 C 171.993 159.648,172.255 158.658,172.375 157.648 C 172.494 156.638,172.714 155.812,172.863 155.812 C 173.012 155.812,173.247 154.814,173.385 153.594 C 173.524 152.374,173.763 151.216,173.916 151.020 C 174.201 150.658,174.562 148.156,174.786 144.987 C 174.856 144.011,175.015 142.955,175.142 142.640 C 175.403 141.988,175.197 127.456,174.873 123.691 C 174.464 118.933,174.196 116.945,173.917 116.593 C 173.763 116.398,173.523 115.080,173.384 113.665 C 173.245 112.249,173.004 111.091,172.850 111.091 C 172.695 111.091,172.475 110.413,172.361 109.583 C 171.955 106.619,171.652 105.239,171.096 103.815 C 170.943 103.425,170.541 102.147,170.202 100.976 C 169.863 99.805,169.214 97.808,168.761 96.539 C 168.307 95.271,167.833 93.833,167.708 93.345 C 167.473 92.430,167.291 91.958,166.318 89.742 C 166.006 89.030,165.750 88.191,165.750 87.879 C 165.750 87.567,165.590 87.311,165.395 87.311 C 165.200 87.311,165.040 87.028,165.040 86.681 C 165.040 86.334,164.561 85.126,163.975 83.997 C 163.390 82.869,162.910 81.715,162.910 81.434 C 162.910 81.153,162.751 80.923,162.555 80.923 C 162.360 80.923,162.201 80.747,162.201 80.533 C 162.201 80.107,161.115 77.660,160.799 77.374 C 160.592 77.186,159.834 75.653,158.780 73.292 C 158.431 72.511,157.940 71.661,157.689 71.403 C 157.437 71.145,157.232 70.626,157.232 70.250 C 157.232 69.873,157.107 69.565,156.955 69.565 C 156.803 69.565,156.370 68.773,155.995 67.804 C 155.619 66.836,155.240 66.115,155.152 66.202 C 155.065 66.289,154.615 65.605,154.152 64.680 C 153.170 62.718,152.611 61.796,151.996 61.125 C 151.752 60.859,151.553 60.443,151.553 60.201 C 151.553 59.959,151.272 59.452,150.928 59.073 C 150.585 58.695,149.906 57.618,149.420 56.680 C 148.934 55.742,148.288 54.703,147.986 54.373 C 147.683 54.042,147.124 53.212,146.744 52.529 C 146.119 51.407,144.226 48.714,143.750 48.270 C 143.646 48.172,143.246 47.493,142.862 46.761 C 142.478 46.029,142.040 45.430,141.889 45.430 C 141.738 45.430,141.615 45.268,141.615 45.070 C 141.615 44.759,139.638 41.851,137.880 39.574 C 137.578 39.184,136.851 38.225,136.264 37.445 C 135.677 36.664,134.996 35.782,134.752 35.484 C 134.507 35.187,133.760 34.149,133.091 33.177 C 132.423 32.206,131.512 31.073,131.067 30.660 C 130.622 30.247,130.257 29.767,130.257 29.592 C 130.257 29.417,129.858 28.843,129.370 28.317 C 128.882 27.791,128.478 27.233,128.473 27.078 C 128.467 26.924,127.788 26.047,126.964 25.132 C 126.140 24.216,125.067 22.970,124.579 22.364 C 124.091 21.758,123.097 20.590,122.370 19.770 C 121.643 18.950,121.044 18.164,121.039 18.025 C 121.034 17.885,120.568 17.299,120.005 16.723 C 119.442 16.147,118.751 15.347,118.469 14.945 C 117.893 14.122,114.773 10.640,111.713 7.406 C 110.590 6.219,109.666 5.146,109.660 5.020 C 109.587 3.605,106.477 2.490,106.477 3.879 " stroke="none" fill="#5b8c1c" fill-rule="evenodd"></path><path id="path1" d="M199.468 61.638 C 198.784 61.731,198.074 61.956,197.888 62.137 C 197.703 62.318,197.184 62.467,196.735 62.467 C 196.286 62.467,195.918 62.606,195.918 62.776 C 195.918 62.947,195.280 63.188,194.499 63.313 C 193.718 63.438,193.077 63.658,193.075 63.802 C 193.073 63.946,192.443 64.365,191.675 64.732 C 190.907 65.100,190.195 65.619,190.093 65.886 C 189.991 66.153,189.702 66.371,189.452 66.371 C 189.202 66.372,188.408 66.971,187.689 67.702 C 186.969 68.434,186.170 69.225,185.914 69.459 C 185.118 70.189,184.561 70.941,184.561 71.287 C 184.561 71.469,184.321 71.711,184.028 71.823 C 183.736 71.935,183.496 72.335,183.496 72.710 C 183.496 73.086,183.256 73.485,182.964 73.598 C 182.671 73.710,182.431 74.047,182.431 74.346 C 182.431 74.644,182.272 74.889,182.076 74.889 C 181.881 74.889,181.721 75.209,181.721 75.599 C 181.721 75.989,181.564 76.309,181.371 76.309 C 181.178 76.309,180.918 76.948,180.793 77.728 C 180.668 78.509,180.436 79.148,180.278 79.148 C 180.119 79.148,179.880 80.266,179.745 81.633 C 179.610 82.999,179.361 84.117,179.191 84.117 C 179.021 84.117,178.882 86.832,178.882 90.151 C 178.882 93.469,179.021 96.185,179.191 96.185 C 179.361 96.185,179.611 97.161,179.746 98.354 C 179.881 99.548,180.124 100.786,180.287 101.105 C 180.450 101.425,180.861 102.405,181.201 103.283 C 183.246 108.576,185.643 112.195,189.707 116.120 C 190.683 117.063,191.590 117.834,191.723 117.835 C 191.855 117.835,192.190 118.061,192.466 118.337 C 193.110 118.981,197.607 121.739,198.014 121.739 C 198.183 121.739,198.779 121.978,199.338 122.269 C 199.897 122.561,200.762 122.801,201.260 122.802 C 201.758 122.803,202.317 122.944,202.502 123.116 C 203.662 124.188,212.144 124.205,214.103 123.139 C 214.442 122.955,215.081 122.803,215.523 122.802 C 215.965 122.801,216.784 122.561,217.343 122.269 C 217.902 121.978,218.502 121.739,218.675 121.739 C 221.212 121.739,230.809 111.505,231.572 107.986 C 231.710 107.351,231.969 106.832,232.149 106.832 C 232.329 106.832,232.476 106.522,232.476 106.143 C 232.476 105.764,232.628 105.360,232.814 105.245 C 233.000 105.130,233.261 104.079,233.393 102.909 C 233.526 101.740,233.773 100.697,233.942 100.592 C 234.342 100.345,234.346 89.441,233.946 89.441 C 233.778 89.441,233.543 88.499,233.423 87.349 C 233.216 85.367,233.044 84.778,231.893 82.111 C 231.628 81.496,231.411 80.738,231.411 80.426 C 231.411 80.113,231.251 79.858,231.056 79.858 C 230.861 79.858,230.701 79.596,230.701 79.275 C 230.701 78.669,228.222 74.531,227.117 73.292 C 224.051 69.855,222.337 68.146,221.958 68.146 C 221.711 68.146,221.380 67.931,221.224 67.669 C 221.068 67.407,220.461 66.892,219.876 66.524 C 219.290 66.156,218.731 65.771,218.634 65.667 C 218.224 65.234,213.752 63.177,213.221 63.177 C 212.902 63.177,212.543 63.017,212.422 62.822 C 212.302 62.626,211.765 62.467,211.230 62.467 C 210.695 62.467,210.081 62.291,209.866 62.076 C 209.455 61.665,201.670 61.337,199.468 61.638 M279.148 146.584 C 279.028 146.779,278.379 146.939,277.708 146.939 C 277.036 146.939,276.486 147.078,276.486 147.248 C 276.486 147.418,275.688 147.663,274.712 147.793 C 273.736 147.922,272.937 148.175,272.937 148.355 C 272.937 148.534,272.374 148.787,271.686 148.916 C 270.998 149.045,270.239 149.426,270.000 149.762 C 269.761 150.098,269.122 150.483,268.580 150.617 C 268.038 150.751,267.312 151.136,266.965 151.473 C 266.619 151.810,265.824 152.468,265.199 152.937 C 264.575 153.405,264.064 153.964,264.063 154.179 C 264.063 154.394,263.424 155.171,262.644 155.905 C 261.863 156.639,261.224 157.387,261.224 157.567 C 261.224 157.747,260.911 157.993,260.527 158.115 C 260.085 158.255,259.745 158.784,259.600 159.559 C 259.474 160.231,259.260 160.781,259.126 160.781 C 258.991 160.781,258.596 161.619,258.248 162.644 C 257.900 163.669,257.429 164.891,257.201 165.360 C 256.610 166.579,256.636 177.274,257.232 177.870 C 257.476 178.114,257.675 178.670,257.675 179.106 C 257.675 179.541,258.154 180.932,258.740 182.198 C 259.326 183.463,259.805 184.672,259.805 184.884 C 259.805 185.097,259.939 185.271,260.104 185.271 C 260.268 185.271,260.704 185.830,261.072 186.513 C 261.440 187.196,261.853 187.755,261.991 187.755 C 262.129 187.755,262.335 188.035,262.450 188.376 C 262.822 189.481,266.389 192.997,268.662 194.499 C 269.348 194.951,271.123 196.256,272.405 197.250 C 272.600 197.401,273.478 197.824,274.357 198.189 C 275.235 198.555,276.457 199.072,277.072 199.338 C 277.687 199.605,278.437 199.823,278.737 199.823 C 279.038 199.823,279.372 199.965,279.479 200.138 C 279.586 200.312,280.195 200.540,280.831 200.645 C 281.467 200.751,282.866 201.024,283.940 201.253 C 285.192 201.520,287.928 201.608,291.571 201.499 C 296.669 201.347,298.388 201.086,300.278 200.175 C 300.577 200.031,301.336 199.800,301.964 199.662 C 302.592 199.524,303.106 199.264,303.106 199.084 C 303.106 198.905,303.390 198.758,303.737 198.758 C 305.080 198.758,313.398 192.514,313.398 191.505 C 313.398 191.378,313.787 190.854,314.262 190.342 C 314.737 189.830,315.415 188.839,315.770 188.140 C 316.125 187.440,316.535 186.815,316.681 186.749 C 316.828 186.684,316.948 186.423,316.948 186.169 C 316.948 185.915,317.186 185.249,317.478 184.690 C 317.769 184.131,318.009 183.346,318.010 182.946 C 318.011 182.546,318.211 182.020,318.453 181.778 C 319.034 181.197,319.079 171.409,318.505 170.685 C 318.287 170.411,318.005 169.501,317.877 168.662 C 317.749 167.824,317.505 166.866,317.335 166.533 C 317.165 166.200,316.729 165.288,316.366 164.508 C 316.003 163.727,315.614 163.008,315.502 162.910 C 315.390 162.813,315.192 162.493,315.061 162.201 C 314.649 161.281,313.959 160.322,313.132 159.521 C 312.693 159.095,312.334 158.632,312.334 158.491 C 312.334 157.682,306.242 152.410,303.889 151.182 C 302.970 150.703,302.138 150.226,302.041 150.123 C 301.943 150.020,301.145 149.645,300.266 149.288 C 299.388 148.932,298.386 148.494,298.040 148.314 C 297.694 148.135,296.692 147.889,295.812 147.769 C 294.933 147.648,294.128 147.412,294.024 147.244 C 293.921 147.076,293.296 146.939,292.635 146.939 C 291.975 146.939,291.336 146.779,291.216 146.584 C 291.084 146.371,288.675 146.229,285.182 146.229 C 281.689 146.229,279.280 146.371,279.148 146.584 M303.950 230.060 C 303.853 230.217,304.422 230.346,305.214 230.346 C 306.007 230.346,306.655 230.284,306.655 230.207 C 306.655 229.923,304.120 229.785,303.950 230.060 M279.414 230.245 C 279.951 230.327,280.830 230.327,281.366 230.245 C 281.903 230.164,281.464 230.097,280.390 230.097 C 279.317 230.097,278.878 230.164,279.414 230.245 M203.890 280.745 C 203.890 289.237,203.936 292.711,203.993 288.465 C 204.049 284.219,204.049 277.272,203.993 273.026 C 203.936 268.780,203.890 272.254,203.890 280.745 " stroke="none" fill="#646464" fill-rule="evenodd"></path></g></svg>
